<?xml version="1.0" encoding="UTF-8" standalone="no"?>
<svg
   xmlns:dc="http://purl.org/dc/elements/1.1/"
   xmlns:cc="http://creativecommons.org/ns#"
   xmlns:rdf="http://www.w3.org/1999/02/22-rdf-syntax-ns#"
   xmlns:svg="http://www.w3.org/2000/svg"
   xmlns="http://www.w3.org/2000/svg"
   xmlns:sodipodi="http://sodipodi.sourceforge.net/DTD/sodipodi-0.dtd"
   xmlns:inkscape="http://www.inkscape.org/namespaces/inkscape"
   sodipodi:docname="CakeML.svg"
   xml:space="preserve"
   height="90"
   width="80"
   inkscape:version="1.0 (4035a4fb49, 2020-05-01)"
   version="1.1"
   id="svg3004"><metadata
     id="metadata3010"><rdf:RDF><cc:Work
         rdf:about=""><dc:format>image/svg+xml</dc:format><dc:type
           rdf:resource="http://purl.org/dc/dcmitype/StillImage" /><dc:title></dc:title></cc:Work></rdf:RDF></metadata><defs
     id="defs3008"><clipPath
       id="clipPath3020"
       clipPathUnits="userSpaceOnUse"><path
         inkscape:connector-curvature="0"
         id="path3022"
         d="M 0,0 H 326 V 170 H 0 Z" /></clipPath><clipPath
       id="clipPath3030"
       clipPathUnits="userSpaceOnUse"><path
         inkscape:connector-curvature="0"
         id="path3032"
         d="M 0,170.991 H 326.984 V 0 H 0 Z" /></clipPath><clipPath
       id="clipPath3036"
       clipPathUnits="userSpaceOnUse"><path
         inkscape:connector-curvature="0"
         id="path3038"
         d="M 0,0 H 326 V 170 H 0 Z" /></clipPath></defs><sodipodi:namedview
     inkscape:document-rotation="0"
     inkscape:current-layer="g3012"
     inkscape:window-maximized="0"
     inkscape:window-y="22"
     inkscape:window-x="0"
     inkscape:cy="42.837964"
     inkscape:cx="137.66874"
     inkscape:zoom="4.4691758"
     fit-margin-bottom="0"
     fit-margin-right="0"
     fit-margin-left="0"
     fit-margin-top="0"
     showgrid="false"
     id="namedview3006"
     inkscape:window-height="1418"
     inkscape:window-width="2560"
     inkscape:pageshadow="2"
     inkscape:pageopacity="0"
     guidetolerance="10"
     gridtolerance="10"
     objecttolerance="10"
     borderopacity="1"
     bordercolor="#666666"
     pagecolor="#ffffff" /><g
     style="mix-blend-mode:normal"
     transform="matrix(1.25,0,0,-1.25,-89.29375,153.70287)"
     inkscape:label="cakeml-with-subtitle"
     inkscape:groupmode="layer"
     id="g3012"><g
       id="g3014" /><g
       style="fill:#ffffff;opacity:0"
       transform="matrix(0.24539877,0,0,0.47058824,71.782088,42.750641)"
       id="g3016"><g
         style="fill:#ffffff"
         clip-path="url(#clipPath3020)"
         id="g3018"><path
           inkscape:connector-curvature="0"
           id="path3024"
           style="fill:#ffffff;fill-opacity:1;fill-rule:nonzero;stroke:none"
           d="M 0,0 H 326.983 V 170.991 H 0 Z" /></g></g><g
       transform="translate(1.1643234,-1.0416402)"
       inkscape:transform-center-y="-7.4801794"
       inkscape:transform-center-x="-1.9764288"
       id="g3026"><g
         clip-path="url(#clipPath3030)"
         id="g3028"><g
           clip-path="url(#clipPath3036)"
           id="g3034"><path
             inkscape:connector-curvature="0"
             id="path3104"
             style="fill:#f99d3e;fill-opacity:1;fill-rule:nonzero;stroke:none"
             d="m 127.814,104.8213 -6.269,2.38 -3.447,1.308 -38.066,14.453 c -5.248,-4.306 -8.597,-10.84 -8.597,-18.159 0,-7.272 3.308,-13.771 8.5,-18.078 0.01,-0.008 0.019,-0.017 0.029,-0.025 l 7.867,2.97 0.107,0.041 7.892,2.979 0.096,0.036 7.904,2.985 0.084,0.031 7.915,2.989 0.072,0.027 6.197,2.339 1.729,0.658 0.061,0.022 7.934,3.013 0.037,0.013 z" /><path
             inkscape:connector-curvature="0"
             id="path3106"
             style="fill:#f99d3e;fill-opacity:1;fill-rule:nonzero;stroke:none"
             d="m 79.9644,74.874 c -0.5,0.413 -0.977,0.853 -1.44,1.305 -3.748,3.656 -6.28,8.549 -6.925,14.025 -0.034,0.289 -0.056,0.582 -0.079,0.874 v -1.75 c -0.051,-0.627 -0.085,-1.259 -0.085,-1.899 0,-0.64 0.034,-1.272 0.085,-1.9 0.27,-3.366 1.242,-6.534 2.783,-9.35 1.439,-2.631 3.366,-4.957 5.661,-6.854 l 47.853,18.162 v 5.549 z" /><path
             inkscape:connector-curvature="0"
             id="path3108"
             style="fill:#f99d3e;fill-opacity:1;fill-rule:nonzero;stroke:none"
             d="m 79.9644,59.4326 c -0.5,0.413 -0.977,0.853 -1.44,1.306 -3.748,3.655 -6.28,8.549 -6.925,14.025 -0.034,0.289 -0.056,0.581 -0.079,0.874 v -1.751 c -0.051,-0.627 -0.085,-1.259 -0.085,-1.898 0,-0.641 0.034,-1.273 0.085,-1.9 0.27,-3.367 1.242,-6.535 2.783,-9.35 1.439,-2.631 3.366,-4.957 5.661,-6.855 l 47.853,18.162 v 5.549 z" /></g></g></g></g></svg>
